<svg width="40" height="40" xmlns="http://www.w3.org/2000/svg">

 <g>
  <title>background</title>
  <rect fill="none" id="canvas_background" height="402" width="582" y="-1" x="-1"/>
 </g>
 <g>
  <title>Layer 1</title>
  <path id="svg_3" fill="#ffffff" d="m20,2c9.926,0 18,8.075 18,18s-8.074,18 -18,18c-9.925,0 -18,-8.075 -18,-18s8.075,-18 18,-18m0,-2c-11.046,0 -20,8.954 -20,20c0,11.047 8.954,20 20,20c11.047,0 20,-8.953 20,-20c0,-11.046 -8.953,-20 -20,-20l0,0z"/>
  <path id="svg_4" fill-rule="evenodd" fill="#ffffff" d="m20,31.49c-6.335,0 -11.489,-5.155 -11.489,-11.49c0,-6.335 5.154,-11.49 11.489,-11.49c6.336,0 11.49,5.154 11.49,11.489c0,6.336 -5.154,11.491 -11.49,11.491zm9.689,-9.917c-0.336,-0.107 -3.037,-0.912 -6.113,-0.42c1.285,3.527 1.807,6.4 1.908,6.996c2.202,-1.488 3.768,-3.845 4.205,-6.576zm-5.855,7.475c-0.146,-0.861 -0.717,-3.861 -2.094,-7.441c-0.021,0.008 -0.043,0.014 -0.065,0.021c-5.535,1.93 -7.521,5.768 -7.699,6.129c1.664,1.297 3.756,2.072 6.024,2.072c1.359,0 2.656,-0.279 3.834,-0.781zm-11.125,-2.471c0.222,-0.381 2.915,-4.84 7.978,-6.477c0.127,-0.041 0.256,-0.08 0.386,-0.116c-0.246,-0.558 -0.515,-1.116 -0.796,-1.666c-4.9,1.467 -9.656,1.406 -10.085,1.397c-0.003,0.1 -0.005,0.199 -0.005,0.3c0,2.521 0.955,4.822 2.522,6.562zm-2.315,-8.573c0.439,0.006 4.482,0.023 9.072,-1.195c-1.626,-2.891 -3.379,-5.32 -3.639,-5.676c-2.745,1.295 -4.797,3.826 -5.433,6.871zm7.306,-7.53c0.271,0.363 2.054,2.79 3.662,5.745c3.489,-1.309 4.968,-3.294 5.144,-3.545c-1.732,-1.538 -4.012,-2.474 -6.506,-2.474c-0.792,0.001 -1.562,0.096 -2.3,0.274zm9.896,3.335c-0.205,0.279 -1.85,2.388 -5.479,3.869c0.229,0.468 0.447,0.943 0.65,1.422c0.072,0.169 0.143,0.338 0.211,0.506c3.266,-0.41 6.51,0.248 6.834,0.316c-0.021,-2.316 -0.849,-4.443 -2.216,-6.113z" clip-rule="evenodd"/>
 </g>
</svg>