<svg width="40" height="40" xmlns="http://www.w3.org/2000/svg">

 <g>
  <title>background</title>
  <rect fill="none" id="canvas_background" height="402" width="582" y="-1" x="-1"/>
 </g>
 <g>
  <title>Layer 1</title>
  <path id="svg_3" fill="#ffffff" d="m20,2.071c9.925,0 18,8.075 18,18s-8.074,18 -18,18s-18,-8.075 -18,-18s8.075,-18 18,-18m0,-2c-11.046,0 -20,8.954 -20,20c0,11.047 8.954,20 20,20c11.046,0 20,-8.953 20,-20c0,-11.046 -8.953,-20 -20,-20l0,0z"/>
  <path id="svg_4" fill="#ffffff" d="m21.068,9.018c-5.881,0 -8.846,4.216 -8.846,7.732c0,2.129 0.806,4.023 2.534,4.728c0.284,0.117 0.538,0.004 0.62,-0.309c0.057,-0.219 0.191,-0.766 0.252,-0.994c0.084,-0.311 0.051,-0.42 -0.178,-0.69c-0.498,-0.588 -0.816,-1.349 -0.816,-2.427c0,-3.129 2.34,-5.929 6.094,-5.929c3.325,0 5.151,2.031 5.151,4.743c0,3.569 -1.58,6.582 -3.924,6.582c-1.295,0 -2.265,-1.07 -1.955,-2.384c0.372,-1.568 1.093,-3.261 1.093,-4.393c0,-1.013 -0.544,-1.858 -1.67,-1.858c-1.323,0 -2.387,1.37 -2.387,3.204c0,1.169 0.395,1.959 0.395,1.959s-1.354,5.74 -1.592,6.746c-0.473,2.002 -0.07,4.456 -0.037,4.704c0.02,0.146 0.209,0.182 0.295,0.07c0.121,-0.16 1.698,-2.106 2.234,-4.052c0.151,-0.551 0.871,-3.402 0.871,-3.402c0.43,0.82 1.687,1.543 3.024,1.543c3.979,0 6.678,-3.627 6.678,-8.483c0,-3.671 -3.109,-7.09 -7.836,-7.09z"/>
 </g>
</svg>