<svg width="40" height="40" xmlns="http://www.w3.org/2000/svg">

 <g>
  <title>background</title>
  <rect fill="none" id="canvas_background" height="402" width="582" y="-1" x="-1"/>
 </g>
 <g>
  <title>Layer 1</title>
  <path id="svg_6" fill="#ffffff" d="m20,2c9.925,0 18,8.075 18,18s-8.075,18 -18,18c-9.925,0 -18,-8.074 -18,-18s8.075,-18 18,-18m0,-2c-11.045,0 -20,8.955 -20,20c0,11.046 8.955,20 20,20c11.047,0 20,-8.953 20,-20c0,-11.045 -8.953,-20 -20,-20l0,0z"/>
  <path id="svg_8" fill-rule="evenodd" fill="#ffffff" d="m18.131,8.814c1.963,-0.16 4.797,0.169 6.705,0.995c1.615,0.697 3.736,2.126 3.479,4.221c-0.133,1.089 -1.166,1.833 -2.318,1.823c-1.834,-0.019 -2.648,-2.047 -4.305,-2.733c-1.877,-0.778 -5.846,-0.603 -5.629,2.07c0.105,1.321 1.844,1.698 2.896,1.986c4.271,1.172 9.615,1.753 9.936,6.459c0.508,7.465 -10.117,9.596 -15.566,5.629c-1.014,-0.74 -2.57,-2.482 -1.986,-4.389c0.189,-0.611 0.797,-1.264 1.656,-1.324c2.346,-0.164 2.955,2.941 5.133,3.727c2.529,0.91 6.027,-0.137 5.877,-2.65c-0.129,-2.207 -3.826,-2.469 -5.793,-2.98c-3.354,-0.871 -6.975,-2.036 -7.121,-5.96c-0.156,-4.19 3.094,-6.55 7.036,-6.874z" clip-rule="evenodd"/>
 </g>
</svg>