<svg width="40" height="40" xmlns="http://www.w3.org/2000/svg">

 <g>
  <title>background</title>
  <rect fill="none" id="canvas_background" height="402" width="582" y="-1" x="-1"/>
 </g>
 <g>
  <title>Layer 1</title>
  <path id="svg_7" fill="#ffffff" d="m20,2c9.925,0 18,8.075 18,18s-8.075,18 -18,18c-9.925,0 -18,-8.074 -18,-18s8.075,-18 18,-18m0,-2c-11.045,0 -20,8.955 -20,20c0,11.046 8.955,20 20,20c11.047,0 20,-8.953 20,-20c0,-11.045 -8.953,-20 -20,-20l0,0z"/>
  <path id="svg_8" fill="#ffffff" d="m27.779,24.951l0,0.658l-1.288,0l0,-0.658c0,-0.657 0.216,-0.986 0.646,-0.986c0.427,0 0.642,0.329 0.642,0.986zm-5.42,-0.986c-0.213,0 -0.428,0.102 -0.644,0.313l0,4.332c0.216,0.215 0.431,0.316 0.644,0.316c0.371,0 0.56,-0.316 0.56,-0.958l0,-3.032c0,-0.642 -0.189,-0.971 -0.56,-0.971zm8.296,1.424c0,1.663 -0.003,3.424 -0.373,5.038c-0.261,1.133 -1.188,1.969 -2.305,2.095c-2.642,0.293 -5.316,0.296 -7.979,0.293c-2.662,0.003 -5.337,0 -7.979,-0.293c-1.116,-0.126 -2.042,-0.962 -2.303,-2.095c-0.371,-1.614 -0.371,-3.375 -0.371,-5.038c0,-1.66 0.005,-3.422 0.376,-5.036c0.261,-1.133 1.187,-1.969 2.303,-2.093c2.643,-0.296 5.316,-0.297 7.979,-0.296c2.662,0 5.336,0 7.979,0.296c1.115,0.125 2.042,0.96 2.303,2.093c0.371,1.614 0.37,3.376 0.37,5.036zm-15.231,-4.928l-4.489,0l0,1.344l1.515,0l0,8.193l1.433,0l0,-8.193l1.542,0l0,-1.344l-0.001,0zm3.891,2.432l-1.289,0l0,5.432c-0.286,0.403 -0.556,0.602 -0.813,0.602c-0.173,0 -0.271,-0.102 -0.303,-0.301c-0.012,-0.042 -0.012,-0.199 -0.012,-0.501l0,-5.231l-1.287,0l0,5.619c0,0.502 0.042,0.842 0.113,1.057c0.129,0.359 0.415,0.529 0.831,0.529c0.473,0 0.958,-0.287 1.471,-0.873l0,0.773l1.289,0l0,-7.106zm4.891,2.144c0,-0.674 -0.044,-1.144 -0.129,-1.43c-0.172,-0.531 -0.517,-0.802 -1.029,-0.802c-0.474,0 -0.916,0.259 -1.332,0.771l0,-3.115l-1.287,0l0,9.537l1.287,0l0,-0.688c0.431,0.531 0.873,0.787 1.332,0.787c0.513,0 0.857,-0.271 1.029,-0.799c0.085,-0.303 0.129,-0.775 0.129,-1.434l0,-2.827zm4.86,0.172c0,-0.76 -0.129,-1.315 -0.398,-1.674c-0.36,-0.487 -0.874,-0.729 -1.52,-0.729c-0.657,0 -1.169,0.242 -1.542,0.729c-0.273,0.358 -0.398,0.914 -0.398,1.674l0,2.488c0,0.756 0.142,1.316 0.414,1.672c0.373,0.484 0.886,0.729 1.559,0.729s1.201,-0.256 1.557,-0.771c0.157,-0.228 0.258,-0.486 0.302,-0.771c0.012,-0.129 0.027,-0.414 0.027,-0.829l0,-0.188l-1.313,0c0,0.517 -0.017,0.803 -0.028,0.873c-0.073,0.344 -0.259,0.516 -0.576,0.516c-0.441,0 -0.657,-0.327 -0.657,-0.986l0,-1.259l2.575,0l0,-1.474l-0.002,0zm-12.723,-12.289l0,3.904l-1.443,0l0,-3.904c-0.132,-0.691 -0.421,-1.705 -0.883,-3.048c-0.304,-0.895 -0.62,-1.792 -0.925,-2.686l1.519,0l1.024,3.785l0.983,-3.785l1.459,0l-1.734,5.734zm5.188,3.268c-0.358,0.489 -0.865,0.735 -1.519,0.735c-0.647,0 -1.154,-0.246 -1.514,-0.735c-0.277,-0.359 -0.408,-0.926 -0.408,-1.689l0,-2.514c0,-0.769 0.131,-1.329 0.408,-1.692c0.359,-0.491 0.866,-0.736 1.514,-0.736c0.653,0 1.16,0.245 1.519,0.736c0.272,0.363 0.404,0.924 0.404,1.692l0,2.514c0.001,0.763 -0.131,1.329 -0.404,1.689zm-0.897,-4.466c0,-0.664 -0.2,-0.996 -0.621,-0.996c-0.419,0 -0.62,0.332 -0.62,0.996l0,3.021c0,0.665 0.201,0.997 0.62,0.997c0.421,0 0.621,-0.332 0.621,-0.997l0,-3.021zm4.812,5.102l0,-0.784c-0.518,0.594 -1.013,0.882 -1.486,0.882c-0.418,0 -0.708,-0.17 -0.839,-0.534c-0.071,-0.217 -0.115,-0.56 -0.115,-1.067l0,-5.679l1.298,0l0,5.289c0,0.304 0,0.463 0.017,0.505c0.028,0.202 0.13,0.305 0.304,0.305c0.261,0 0.533,-0.202 0.822,-0.609l0,-5.49l1.302,0l0,7.183l-1.303,0l0,-0.001z"/>
 </g>
</svg>